<?xml version="1.0" standalone="no"?>
<!DOCTYPE svg PUBLIC "-//W3C//DTD SVG 20010904//EN"
 "http://www.w3.org/TR/2001/REC-SVG-20010904/DTD/svg10.dtd">
<svg version="1.0" xmlns="http://www.w3.org/2000/svg"
 width="512.000000pt" height="512.000000pt" viewBox="0 0 512.000000 512.000000"
 preserveAspectRatio="xMidYMid meet">
<metadata>
Created by potrace 1.11, written by Peter Selinger 2001-2013
</metadata>
<g transform="translate(0.000000,512.000000) scale(0.100000,-0.100000)"
fill="#000000" stroke="none">
<path d="M2409 4156 c-2 -2 -31 -7 -64 -10 -33 -4 -67 -9 -75 -11 -8 -2 -26
-6 -40 -9 -114 -19 -416 -131 -428 -158 -2 -5 -8 -8 -13 -8 -12 0 -113 -62
-117 -72 -2 -4 -8 -8 -14 -8 -16 0 -94 -61 -186 -145 -30 -27 -58 -51 -63 -53
-5 -2 -9 -7 -9 -12 0 -5 -12 -21 -27 -37 -48 -50 -93 -105 -93 -113 0 -5 -3
-10 -8 -12 -8 -3 -69 -95 -98 -148 -10 -19 -21 -37 -24 -40 -5 -5 -24 -44 -58
-120 -18 -40 -60 -157 -66 -185 -2 -5 -9 -30 -16 -55 -7 -25 -14 -49 -15 -55
0 -5 -4 -30 -9 -55 -16 -83 -18 -104 -21 -260 -1 -86 1 -180 6 -210 5 -30 11
-73 14 -95 16 -113 120 -418 149 -437 6 -4 8 -8 4 -8 -4 0 10 -29 32 -65 22
-36 40 -69 40 -74 0 -5 3 -11 8 -13 4 -2 25 -27 46 -57 54 -76 50 -72 156
-180 104 -107 147 -143 261 -219 74 -49 279 -156 279 -145 0 3 6 1 13 -5 11
-9 156 -56 209 -68 13 -3 32 -7 43 -9 109 -24 176 -30 345 -30 151 1 198 6
365 39 53 11 239 79 310 114 153 75 295 171 395 269 24 23 48 43 52 43 4 0 8
7 8 15 0 8 4 15 9 15 21 0 173 201 231 306 18 32 36 64 40 69 17 24 99 233
106 270 1 6 7 30 14 55 16 60 20 79 26 120 2 19 8 60 13 90 10 57 7 345 -4
413 -8 53 -41 202 -45 202 -1 0 -3 10 -6 22 -2 11 -13 46 -24 77 -12 30 -22
59 -22 63 0 5 -23 53 -50 108 -68 134 -158 268 -243 361 -11 12 -29 33 -41 45
-28 33 -146 136 -197 173 -23 17 -44 33 -47 36 -3 3 -17 11 -32 19 -16 8 -28
18 -28 23 0 5 -4 6 -10 3 -5 -3 -10 -1 -10 4 0 6 -4 11 -9 11 -4 0 -39 17 -77
38 -38 21 -73 39 -79 41 -5 1 -25 9 -44 17 -18 8 -37 14 -41 14 -4 0 -21 7
-39 16 -37 18 -152 50 -261 70 -66 13 -411 29 -421 20z"/>
</g>
</svg>
